<?xml version="1.0" encoding="UTF-8"?>
<svg width="326px" height="161px" viewBox="0 0 326 161" version="1.1" xmlns="http://www.w3.org/2000/svg" xmlns:xlink="http://www.w3.org/1999/xlink">
    <title>Background+VerticalBorder+Shadow</title>
    <defs>
        <path d="M24,0 L278,0 C291.254834,0 302,10.745166 302,24 L302,113 C302,126.254834 291.254834,137 278,137 L24,137 C10.745166,137 0,126.254834 0,113 L0,24 C0,10.745166 10.745166,0 24,0 Z" id="path-1"></path>
        <filter x="-6.0%" y="-13.1%" width="111.9%" height="126.3%" filterUnits="objectBoundingBox" id="filter-2">
            <feOffset dx="0" dy="0" in="SourceAlpha" result="shadowOffsetOuter1"></feOffset>
            <feGaussianBlur stdDeviation="6" in="shadowOffsetOuter1" result="shadowBlurOuter1"></feGaussianBlur>
            <feComposite in="shadowBlurOuter1" in2="SourceAlpha" operator="out" result="shadowBlurOuter1"></feComposite>
            <feColorMatrix values="0 0 0 0 0   0 0 0 0 0   0 0 0 0 0  0 0 0 0.0399999991 0" type="matrix" in="shadowBlurOuter1"></feColorMatrix>
        </filter>
        <path d="M-34,-85 L61,-85 L61,198 L-34,198 Z" id="path-3"></path>
        <path d="M-34,-85 L61,-85 L61,198 L-34,198 Z" id="path-4"></path>
    </defs>
    <g id="Background+VerticalBorder+Shadow" stroke="none" fill="none" fill-rule="nonzero" transform="translate(12, 12)" xlink:href="#path-1">
        <use fill="black" fill-opacity="1" filter="url(#filter-2)" xlink:href="#path-1"></use>
        <path stroke="#41664F" stroke-width="4" d="M300,24 L300,113 C300,125.150264 290.150264,135 278,135 L24,135 C11.8497355,135 2,125.150264 2,113 L2,24 C2,11.8497355 11.8497355,2 24,2 L278,2 C290.150264,2 300,11.8497355 300,24 Z" stroke-linejoin="square" fill="#FFFFFF" fill-rule="evenodd"></path>
        <g id="Container" transform="translate(24, 24)" xlink:href="#path-3" fill="#41664F" font-family="NewYorkExtraLarge-Regular, New York Extra Large" font-size="237" font-weight="normal" opacity="0.15">
            <g xlink:href="#path-4" id="“">
                <text>
                    <tspan x="-34" y="141">“</tspan>
                </text>
            </g>
        </g>
    </g>
</svg>