<?xml version="1.0" encoding="UTF-8"?>
<svg id="Layer_2" data-name="Layer 2" xmlns="http://www.w3.org/2000/svg" viewBox="0 0 1860.66 1905.59">
  <defs>
    <style>
      .cls-1 {
        fill: #f27388;
      }

      .cls-2 {
        fill: #f8f4d9;
      }

      .cls-2, .cls-3 {
        stroke: #6a8539;
        stroke-linecap: round;
        stroke-linejoin: round;
        stroke-width: 60px;
      }

      .cls-4 {
        fill: #e6eab4;
      }

      .cls-3 {
        fill: none;
      }
    </style>
  </defs>
  <g id="envelope">
    <g id="envelope-2" data-name="envelope">
      <path class="cls-4" d="M953.07,65.9c-13.36,14.97-11.76,65.59-25.57,65.47-13.81-.12-24.75-29.62-24.44-65.9C903.38,29.19,914.83-.12,928.63,0c13.81.12,36.05,59.39,24.44,65.9Z"/>
      <path class="cls-4" d="M813.37,138.98c24.16,8.03,28,42.19,36.66,38.2,8.66-4,6.29-27.58-5.29-52.68-11.58-25.09-25.44-44-36.66-38.2-8.47,4.39-18.86,44.65,5.29,52.68Z"/>
      <path class="cls-2" d="M1794.1,997.72c-17.86-193.19-223.1-752.55-520.12-827.4-261.15-65.81-704.42,201.56-865.8,302.69-190.62,119.46-247.37,343.28-247.37,343.28,0,0-135.51,412.99-130.68,489.66,17.39,276.36,1343.89,689.73,1555.96,536.59,45.38-32.77,223.17-680.93,208.02-844.82Z"/>
      <path class="cls-4" d="M303.53,560.74l636.04,491.05c30.92,23.87,69.17,36.25,108.2,35.02,0,0,744.07-20.03,744.07-20.03-24.76,166.13-160.37,751.18-205.75,783.95C1374.01,2003.87,47.51,1590.5,30.13,1314.15c-4.82-76.67,130.68-489.66,130.68-489.66,0,0,53.05-130.39,142.72-263.75Z"/>
      <path class="cls-3" d="M1791.84,1066.79l-744.07,20.03c-39.04,1.23-77.29-11.15-108.2-35.02l-636.04-491.05"/>
      <path class="cls-3" d="M1811.28,997.72c-17.86-193.19-223.1-752.55-520.12-827.4-261.15-65.81-704.42,201.56-865.8,302.69-190.62,119.46-247.37,343.28-247.37,343.28,0,0-135.51,412.99-130.68,489.66,17.39,276.36,1343.89,689.73,1555.96,536.59,45.38-32.77,223.17-680.93,208.02-844.82Z"/>
      <g>
        <path class="cls-1" d="M1134.35,666.3c-107.2-42.26-256.99,27.8-240.4,86.66,18.83,66.82,130,14.86,183.85,34.75,57.22,21.14,85.91,135.24,136.75,106.88,66.33-36.99,26.98-186.02-80.2-228.29Z"/>
        <path class="cls-1" d="M1085.45,587.57c34.21,10.17,80.99-45.81,95.85-95.9,14.84-50.06-.86-98.91-35.06-109.05-34.21-10.14-74,22.23-88.84,72.32-14.84,50.09-6.19,122.48,28.05,132.64Z"/>
        <path class="cls-1" d="M1217.98,638.54c30.43,18.65,90.09-23.31,117.41-67.86,27.31-44.53,24.76-95.74-5.65-114.41-30.43-18.65-77.23,2.34-104.55,46.84-27.28,44.56-37.65,116.75-7.22,135.43Z"/>
        <path class="cls-1" d="M1434.96,609.69c-28.68-21.24-77.11-4.42-108.2,37.56-31.09,41.98-47.69,113.01-19.02,134.24,28.67,21.23,91.79-15.36,122.87-57.34,31.08-41.96,33.04-93.22,4.35-114.46Z"/>
        <path class="cls-1" d="M953.29,419.76c-35.44-4.06-69.02,34.72-74.93,86.64-5.94,51.89,15.21,121.71,50.64,125.76,35.47,4.06,71.83-59.19,77.75-111.1,5.92-51.9-17.99-97.24-53.46-101.3Z"/>
      </g>
      <path class="cls-4" d="M1790.11,1249.69c-5.83,19.2-49.9,44.17-42.61,55.9,7.29,11.73,38.17,5.72,68.99-13.42,30.82-19.14,49.9-44.17,42.61-55.9-7.29-11.73-69.48.11-68.99,13.42Z"/>
      <path class="cls-4" d="M1800.39,1407.01c-19.42-16.45-50.6-1.96-51.69-11.43-1.09-9.48,20.28-19.72,47.74-22.89,27.46-3.16,50.81-1.17,51.69,11.43.66,9.52-28.31,39.34-47.74,22.89Z"/>
    </g>
  </g>
</svg>