<?xml version="1.0" encoding="UTF-8"?>
<svg id="Layer_2" data-name="Layer 2" xmlns="http://www.w3.org/2000/svg" viewBox="0 0 2465.44 1820.26">
  <defs>
    <style>
      .cls-1 {
        fill: #231f20;
      }

      .cls-2 {
        fill: #fff;
      }

      .cls-3 {
        fill: #f8f4d9;
      }
    </style>
  </defs>
  <g id="logo">
    <g id="pet_pocket_logo" data-name="pet pocket logo">
      <g id="pet_pocket" data-name="pet pocket">
        <g>
          <path class="cls-1" d="M230.98,1459.47c0-134.7,27.26-205.25,58.53-243.74,22.45-28.06,44.9-36.88,97.01-36.88h88.19c52.11,0,74.56,8.82,97.01,36.88,31.27,38.49,57.73,108.24,57.73,218.88,0,122.67-32.07,255.76-152.34,255.76-66.55,0-101.82-40.09-121.07-95.41l-6.41,1.6c5.61,82.58,26.46,167.57,43.29,223.69h-114.65c-28.86-101.02-47.3-249.35-47.3-360.79ZM490.75,1566.1c17.64-21.65,26.46-66.55,26.46-131.49s-9.62-111.44-28.06-133.89c-11.22-15.23-25.66-19.24-58.53-19.24s-47.3,4.01-58.53,19.24c-18.44,22.45-28.06,68.95-28.06,133.89s8.82,109.84,26.46,131.49c12.83,16.04,28.06,21.65,60.13,21.65s47.3-5.61,60.13-21.65Z"/>
          <path class="cls-1" d="M725.67,1645.47c-32.07-38.49-57.73-108.24-57.73-214.87s25.66-176.39,57.73-214.87c23.25-27.26,54.97-70.19,105.03-36.88,18.14,12.07-40.61,80.38,33.67,80.38s15.53-68.31,33.67-80.38c50.07-33.31,81.78,9.62,105.03,36.88,32.07,38.49,57.73,108.24,57.73,214.87s-25.66,176.39-57.73,214.87c-23.25,27.26-44.9,36.88-105.03,36.88h-67.35c-60.13,0-81.78-9.62-105.03-36.88ZM921.3,1561.29c17.64-22.45,27.26-67.35,27.26-130.69s-9.62,35.68-27.26,13.23c-11.23-14.43-24.85-18.44-56.92-18.44s-45.7,4.01-56.93,18.44c-17.64,22.45-27.26-76.57-27.26-13.23s9.62,108.24,27.26,130.69c11.23,14.43,24.85,18.44,56.93,18.44s45.7-4.01,56.92-18.44Z"/>
          <path class="cls-1" d="M1157.02,1645.47c-32.07-40.89-57.73-113.85-57.73-214.87s25.66-173.18,57.73-214.87c21.65-28.86,42.49-36.88,89-36.88h144.32v109.04c-40.09-3.21-66.55-6.41-98.62-6.41s-41.69,4.01-52.92,18.44c-17.64,23.25-27.26,69.75-27.26,130.69s9.62,107.44,27.26,130.69c11.23,14.43,20.84,18.44,52.92,18.44s60.13-3.21,100.22-6.41v109.04h-145.92c-46.5,0-67.35-8.02-89-36.88Z"/>
          <path class="cls-1" d="M1416,1430.6c0-149.13,21.65-311.89,53.72-412.11h114.65c-48.11,161.96-55.32,279.01-56.12,376.03l8.02,1.6c8.82-28.86,16.84-40.89,60.13-68.15,52.11-32.87,77.77-82.58,85.79-149.13h112.25c-6.41,105.83-43.3,168.37-121.07,200.44l.8,5.61c78.57,17.64,125.88,108.24,128.28,297.45h-112.25c-1.6-164.36-40.09-246.14-115.45-246.14-30.47,0-45.7,8.82-45.7,48.91s11.23,142.71,19.24,197.23h-112.25c-11.23-64.14-20.04-147.52-20.04-251.75Z"/>
          <path class="cls-1" d="M1870.62,1645.47c-32.07-40.89-57.73-113.05-57.73-214.87s25.66-174.78,52.92-210.06c11.63-15.24,19.48-25.66,30.15-32.27,19.67-12.2,49.72-9.88,60.11,10.8,21.43,42.66,48.51,42.27,71.32,3.5,13.7-23.3,48.03-25.19,72.85-14.47,15.31,6.61,28.04,17.08,40.58,32.44,28.86,36.08,47.3,88.19,47.3,147.52,0,104.23-54.52,157.14-150.73,157.14-48.11,0-87.39-15.23-106.64-67.35l-5.61,1.6c2.41,46.5,11.22,81.78,27.26,100.22,13.63,15.23,33.67,20.04,65.74,20.04s96.21-4.81,136.3-9.62v112.25h-194.83c-46.5,0-67.35-8.82-89-36.88ZM2075.87,1368.06c0-29.67-8.02-54.52-20.04-68.95-10.42-12.83-28.87,23.75-55.32,23.75-32.07,0-40.09-38.18-52.92-18.13-12.03,18.44-18.44,52.92-18.44,82.58,0,50.51,19.24,56.92,65.74,56.92,61.74,0,80.98-17.64,80.98-76.17ZM2019.88,1030.51c0,36.28-11.19,65.69-25,65.69s-25-29.41-25-65.69,11.19-65.69,25-65.69,25,29.41,25,65.69ZM2125.27,1074.66c-16.21,11.83-25.29,61.65-38.77,58.63-13.47-3.02-17.96-34.17-10.03-69.57,7.94-35.4,25.29-61.65,38.77-58.63,13.47,3.02,22.75,65.65,10.03,69.57ZM1867.12,1083.26c21.93,12.93,18.49,47.14,27.8,45.05,9.31-2.09,11.95-25.64,5.91-52.61-6.05-26.97-15.61-48.37-27.8-45.05-9.2,2.51-27.83,39.68-5.91,52.61Z"/>
          <path class="cls-1" d="M2260.16,1591.75c-16.04-56.93-16.04-129.1-16.04-188.43,0-53.72,2.41-85.8,6.42-121.88h-54.53v-102.64h67.36c6.41-36.08,12.83-68.96,20.05-97.83h95.42l-11.23,97.83h93.01v102.64h-70.56c-30.47,0-33.68,1.6-33.68,87.4,0,79.38,6.41,164.38,13.63,188.43,4.81,16.84,13.63,22.45,37.69,22.45h57.73v102.64h-105.84c-55.33,0-85-39.29-99.43-90.61Z"/>
          <g id="eyes">
            <ellipse class="cls-3" cx="813.9" cy="1375.65" rx="18.77" ry="19.61"/>
            <ellipse class="cls-3" cx="914.86" cy="1375.65" rx="18.77" ry="19.61"/>
          </g>
        </g>
        <g>
          <path class="cls-1" d="M.36,731.82c0-122.49-5.35-211.02,25.1-276.1C133.71,224.37,67.08-5.75,106.88.11c31.29,4.6,41.07,185.43,52.35,287.47.94,8.54,12.73,9.94,15.74,1.88,27.98-75.05,19.69-190.74,35.7-190.04,17.84.78,40.96,153.36,43.45,206.73,1.05,22.57,16.06,41.85,38.47,44.67,142.6,17.96,241.92,131.4,241.92,268.53,0,177.71-77.31,263.05-224.9,263.05-45.18,0-76.3-8.03-107.43-8.03-40.16,0-46.18,13.05-44.18,57.23,3.01,56.23,17.07,150.6,24.1,201.81H29.48C11.41,981.82.36,830.21.36,731.82ZM266.43,746.88c81.32-6.02,119.48-34.14,119.48-129.52,0-118.47-34.14-152.61-113.45-152.61-64.26,0-85.34,12.05-101.4,35.14-17.07,24.1-24.1,65.26-24.1,181.73l1,122.49,8.03,1c14.06-40.16,41.16-53.21,110.44-58.23Z"/>
          <path class="cls-1" d="M632.9,1087.24c-40.16-51.21-72.29-141.57-72.29-269.08s32.13-218.87,66.26-263.05c29.12-38.15,60.24-52.21,117.47-52.21h107.43c56.23,0,88.35,14.06,119.48,52.21,36.14,45.18,59.24,110.44,59.24,184.74,0,130.52-68.27,196.79-188.76,196.79-60.24,0-109.44-19.08-133.53-84.34l-7.03,2.01c3.01,58.23,14.06,102.41,34.14,125.5,17.07,19.08,42.17,25.1,82.33,25.1s120.48-6.02,170.68-12.05v140.56h-243.97c-58.23,0-84.34-11.04-111.45-46.18ZM889.93,739.85c0-37.15-10.04-68.27-25.1-86.35-13.05-16.06-30.12-22.09-63.25-22.09-40.16,0-56.22,4.02-72.29,29.12-15.06,23.09-23.09,66.26-23.09,103.41,0,63.25,24.1,71.29,82.33,71.29,77.31,0,101.4-22.09,101.4-95.38Z"/>
          <path class="cls-1" d="M1130.9,1019.97c-20.08-71.29-20.08-161.65-20.08-235.94,0-67.27,4.02-115.46,8.03-157.63l-78.31,5.02v-128.51h94.38c8.03-45.18,16.06-86.35,25.1-122.49h119.48l-14.06,122.49h116.47v124.5c-26.1-2.01-54.22-4.02-88.35-4.02-38.15,0-42.17,2.01-42.17,117.47,0,99.4,8.03,205.82,17.07,235.94,6.02,21.08,17.07,28.11,47.19,28.11l76.31-3.01v131.53h-136.55c-69.28,0-105.42-48.19-124.5-113.45Z"/>
        </g>
        <g id="eyes-2" data-name="eyes">
          <ellipse class="cls-2" cx="114.92" cy="314.59" rx="13.95" ry="31.81"/>
          <ellipse class="cls-2" cx="200.13" cy="317.35" rx="12.23" ry="23.16"/>
        </g>
      </g>
    </g>
  </g>
</svg>